<svg width="740" height="736" viewBox="0 0 740 736" fill="none" xmlns="http://www.w3.org/2000/svg">
<g opacity="0.25" clip-path="url(#clip0_35_72)">
<path d="M119.131 158.372L119.325 158.227L191.658 106.131L191.803 106.325L243.854 178.634L243.661 178.779L171.359 230.837L171.213 230.63L119.131 158.372ZM191.546 106.81L119.802 158.478L171.469 230.208L243.206 178.547L191.546 106.81Z" fill="white"/>
<path d="M116.085 153.119L116.288 152.994L196.929 103.063L197.048 103.273L246.963 183.888L246.754 184.02L166.138 233.922L166.005 233.712L116.085 153.119ZM196.78 103.787L116.767 153.335L166.31 233.355L246.322 183.806L196.78 103.787Z" fill="white"/>
<path d="M113.236 147.332L202.723 100.219L202.842 100.43L249.812 189.675L160.302 236.769L160.19 236.551L113.236 147.332ZM202.493 100.903L113.903 147.536L160.536 236.127L249.127 189.493L202.493 100.903Z" fill="white"/>
<path d="M110.649 140.977L110.882 140.877L209.06 97.6551L209.152 97.882L252.375 196.06L252.148 196.152L153.97 239.375L153.871 239.155L110.649 140.977ZM208.799 98.3L111.292 141.225L154.217 238.731L251.73 195.799L208.799 98.3Z" fill="white"/>
<path d="M108.372 134.042L215.989 95.3853L216.074 95.6061L254.637 202.983L147.059 241.622L146.98 241.393L108.372 134.042ZM215.698 96.0055L109.005 134.332L147.332 241.024L254.024 202.698L215.698 96.0055Z" fill="white"/>
<path d="M106.479 126.511L106.709 126.446L223.518 93.4791L223.577 93.7164L256.551 210.519L256.315 210.591L139.511 243.551L139.439 243.315L106.479 126.511ZM223.176 94.0834L107.051 126.877L139.822 242.984L255.884 210.252L223.176 94.0834Z" fill="white"/>
<path d="M105.013 118.382L105.257 118.329L231.642 92.0202L231.7 92.2575L258.028 218.619L257.797 218.67L131.407 244.987L131.354 244.742L105.013 118.382ZM231.307 92.6308L105.644 118.784L131.797 244.447L257.46 218.294L231.307 92.6308Z" fill="white"/>
<path d="M104.068 109.644L104.316 109.619L240.38 91.0761L240.411 91.3162L258.954 227.38L258.713 227.411L122.644 245.961L122.613 245.721L104.068 109.644ZM239.978 91.6448L104.641 110.086L123.091 245.43L258.428 226.988L239.978 91.6448Z" fill="white"/>
<path d="M113.342 246.344L113.324 246.102L103.711 100.311L103.952 100.294L249.712 90.7184L249.729 90.9599L259.313 236.726L259.063 236.737L113.342 246.344ZM104.26 100.798L113.781 245.806L258.809 236.276L249.264 91.2362L104.26 100.798Z" fill="white"/>
<path d="M103.376 246.008L103.379 245.757L104.022 90.3765L104.273 90.379L259.653 91.0221L259.657 91.265L259.008 246.653L258.763 246.643L103.376 246.008ZM104.517 90.8686L103.911 245.523L258.562 246.163L259.161 91.5165L104.517 90.8686Z" fill="white"/>
<path d="M92.8505 244.936L92.8743 244.69L105.05 79.8271L105.295 79.851L270.158 92.0264L270.148 92.2707L257.921 257.104L257.683 257.086L92.8505 244.936ZM105.544 80.3819L93.3833 244.5L257.487 256.661L269.648 92.5436L105.544 80.3819Z" fill="white"/>
<path d="M81.774 243.023L81.8054 242.784L107.013 68.7664L281.262 93.999L281.224 94.246L256.029 268.248L81.774 243.023ZM107.454 69.3543L82.3082 242.601L255.591 267.688L280.682 94.4467L107.454 69.3543Z" fill="white"/>
<path d="M70.1511 240.172L70.2039 239.937L109.833 57.1814L110.082 57.2328L292.883 96.8366L292.838 97.0775L253.19 279.856L252.948 279.797L70.1511 240.172ZM110.231 57.7459L70.717 239.788L252.778 279.279L292.291 97.2369L110.231 57.7459Z" fill="white"/>
<path d="M58.0347 236.286L58.1088 236.056L113.738 45.0422L113.974 45.1088L304.989 100.751L304.915 100.981L249.286 291.995L249.05 291.928L58.0347 236.286ZM114.077 45.6474L58.6777 235.978L248.983 291.407L304.413 101.101L114.077 45.6474Z" fill="white"/>
<path d="M45.47 231.264L45.5516 231.04L118.804 32.5009L119.035 32.5888L317.598 105.797L317.51 106.028L244.245 304.582L244.008 304.502L45.47 231.264ZM119.027 33.1248L46.0697 231.009L243.946 303.959L316.929 106.059L119.027 33.1248Z" fill="white"/>
<path d="M32.5024 225.004L32.5979 224.778L125.026 19.5024L125.245 19.6054L330.527 112.026L330.432 112.251L238.004 317.527L237.779 317.432L32.5024 225.004ZM125.296 20.1771L33.1751 224.783L237.788 316.909L329.879 112.279L125.296 20.1771Z" fill="white"/>
<path d="M19.2047 217.401L19.3215 217.18L132.629 6.2048L343.819 119.637L343.67 119.818L230.363 330.794L19.2047 217.401ZM132.828 6.87276L19.8651 217.195L230.195 330.165L343.165 119.835L132.828 6.87276Z" fill="white"/>
<path d="M5.65613 208.343L5.81078 208.153L141.687 -7.34388L141.876 -7.18924L357.349 128.717L357.2 128.899L221.38 344.404L221.191 344.25L5.65613 208.343ZM141.839 -6.66423L6.33574 208.191L221.184 343.702L356.694 128.839L141.839 -6.66423Z" fill="white"/>
<path d="M-8.04937 197.73L-7.89472 197.54L152.301 -21.0356L152.491 -20.8809L371.061 139.323L370.906 139.512L210.702 358.082L210.513 357.927L-8.04937 197.73ZM152.397 -20.3642L-7.37178 197.627L210.613 357.403L370.382 139.412L152.397 -20.3642Z" fill="white"/>
<path d="M-21.7976 185.453L-21.643 185.264L164.584 -34.7915L164.788 -34.6244L384.844 151.603L384.689 151.792L198.462 371.847L198.273 371.693L-21.7976 185.453ZM164.64 -34.1021L-21.1158 185.391L198.384 371.139L384.132 151.64L164.64 -34.1021Z" fill="white"/>
<path d="M-35.4821 171.398L-35.3274 171.209L178.632 -48.4821L178.821 -48.3274L398.518 165.624L398.37 165.806L184.426 385.509L184.236 385.354L-35.4821 171.398ZM178.646 -47.7886L-34.7886 171.384L184.39 384.811L397.824 165.638L178.646 -47.7886Z" fill="white"/>
<path d="M-48.9659 155.474L-48.8112 155.285L194.525 -61.9906L194.715 -61.836L411.984 181.508L411.835 181.69L168.491 398.959L168.309 398.811L-48.9659 155.474ZM194.515 -61.2668L-48.2744 155.509L168.516 398.31L411.312 181.527L194.515 -61.2668Z" fill="white"/>
<path d="M-62.0861 137.574L-61.9376 137.393L212.418 -75.117L212.57 -74.9169L425.072 199.432L424.923 199.614L150.568 412.123L150.416 411.923L-62.0861 137.574ZM212.402 -74.3718L-61.3415 137.652L150.682 411.396L424.426 199.372L212.402 -74.3718Z" fill="white"/>
<path d="M-74.692 117.607L-74.4905 117.469L232.405 -87.6555L232.538 -87.4464L437.683 219.454L437.474 219.586L130.574 424.732L130.435 424.531L-74.692 117.607ZM232.29 -87.0045L-74.0045 117.739L130.758 424.011L437.059 219.26L232.29 -87.0045Z" fill="white"/>
<path d="M-86.5781 95.4756L-86.3677 95.3571L254.548 -99.5705L254.666 -99.36L449.608 241.554L449.391 241.68L108.476 436.608L108.357 436.397L-86.5781 95.4756ZM254.372 -98.9064L-85.9126 95.6656L108.658 435.936L448.936 241.372L254.372 -98.9064Z" fill="white"/>
<path d="M-97.5558 71.1186L-97.3302 71.0125L278.905 -110.548L279.017 -110.33L460.579 265.919L460.36 266.017L84.096 447.567L83.9836 447.349L-97.5558 71.1186ZM278.678 -109.9L-96.9308 71.3892L84.3142 446.975L459.916 265.68L278.678 -109.9Z" fill="white"/>
<path d="M-107.397 44.4579L-107.17 44.3655L305.557 -120.409L305.649 -120.182L470.405 292.567L470.178 292.659L57.4352 457.408L57.3504 457.187L-107.397 44.4579ZM305.29 -119.743L-106.801 44.7175L57.6597 456.808L469.751 292.348L305.29 -119.743Z" fill="white"/>
<path d="M-115.858 15.427L-115.635 15.3559L334.603 -128.858L334.675 -128.622L478.887 321.603L478.659 321.681L28.4209 465.895L28.3484 465.659L-115.858 15.427ZM334.258 -128.204L-115.279 15.7856L28.7093 465.31L478.241 321.327L334.258 -128.204Z" fill="white"/>
<path d="M-122.698 -16.0052L-122.453 -16.0577L366.021 -135.697L366.08 -135.459L485.706 353.03L485.469 353.089L-3.01276 472.722L-3.07147 472.484L-122.698 -16.0052ZM365.671 -135.099L-122.106 -15.648L-2.648 472.136L485.09 352.64L365.671 -135.099Z" fill="white"/>
<path d="M-127.608 -49.8631L-127.369 -49.9081L399.893 -140.608L399.938 -140.369L490.638 386.893L490.399 386.938L-36.8693 477.645L-36.908 477.399L-127.608 -49.8631ZM399.498 -140.047L-127.047 -49.468L-36.4679 477.076L490.046 386.473L399.498 -140.047Z" fill="white"/>
<path d="M-73.1669 480.348L-130.318 -86.1668L436.197 -143.318L493.348 423.197L-73.1669 480.348ZM-129.773 -85.7214L-72.7215 479.803L492.803 422.751L435.751 -142.773L-129.773 -85.7214Z" fill="white"/>
</g>
<defs>
<clipPath id="clip0_35_72">
<rect width="805.24" height="805.24" fill="white" transform="translate(124.363 -398) rotate(39.2393)"/>
</clipPath>
</defs>
</svg>
