<svg width="168" height="240" viewBox="0 0 168 240" fill="none" xmlns="http://www.w3.org/2000/svg">
<path d="M141.321 219.222C141.321 231.014 131.505 239.858 118.74 239.858C105.975 239.858 96.164 231.014 96.164 219.222V192.356H24.1711C10.4292 192.356 0.9375 181.861 0.9375 170.083C0.9375 168.771 2.24784 162.871 4.21098 158.635L67.0409 13.5032C70.3096 5.64181 78.8198 0.728394 87.3251 0.728394C98.4511 0.728394 109.906 10.5552 109.906 22.023C109.906 23.9883 109.906 26.2828 108.596 29.2309C89.617 73.1175 74.2359 107.526 55.2573 151.427H96.164V101.277C96.164 89.4844 105.98 80.6403 118.74 80.6403C130.848 80.6403 141.321 89.4844 141.321 101.277V151.403H145.576C158.008 151.403 167.494 160.905 167.494 171.715C167.494 183.163 158.003 192.351 145.576 192.351H141.321V219.222Z" fill="url(#paint0_linear_275_159)"/>
<defs>
<linearGradient id="paint0_linear_275_159" x1="167.366" y1="117.853" x2="0.9375" y2="117.853" gradientUnits="userSpaceOnUse">
<stop stop-color="#FFE451"/>
<stop offset="1" stop-color="#ADFF35"/>
</linearGradient>
</defs>
</svg>
