<svg width="179" height="384" viewBox="0 0 179 384" fill="none" xmlns="http://www.w3.org/2000/svg">
<path d="M17.375 11.9385L10.9613 69.0933C10.2222 75.6793 14.962 81.6189 21.5479 82.3596L154.871 97.3547C161.457 98.0954 167.395 93.3568 168.134 86.7707L174.548 29.616C175.287 23.0299 170.547 17.0904 163.961 16.3496L30.6381 1.35456C24.0522 0.61383 18.1141 5.35243 17.375 11.9385Z" fill="#131A12"/>
<path d="M51.6486 18.2416C51.6045 19.0471 51.2652 19.808 50.6957 20.3787C50.1176 20.963 49.4378 21.4367 48.6897 21.7764C48.0035 22.1294 47.2952 22.5078 46.5645 22.9117C45.8452 23.3127 45.1641 23.779 44.5299 24.3046C43.9175 24.8141 43.3899 25.418 42.967 26.0935C42.5365 26.7938 42.2875 27.5907 42.2427 28.4118C42.1779 29.1434 42.313 29.8788 42.6335 30.5394C42.9732 31.2232 43.3767 31.8733 43.8389 32.4809C44.3154 33.1201 44.8634 33.7879 45.4543 34.4749C46.0575 35.1807 46.592 35.9427 47.0504 36.7503C47.5415 37.6214 47.9255 38.5488 48.1941 39.5123C48.7786 41.6915 48.5968 44.0057 47.6794 46.0667C47.1804 47.2453 46.5693 48.3731 45.8546 49.4345C45.0898 50.5846 44.2255 51.6652 43.2719 52.664C42.3326 53.6621 41.3056 54.5737 40.2034 55.3878C39.1841 56.1456 38.071 56.7677 36.8918 57.2387C35.868 57.6685 34.76 57.8594 33.6516 57.7968C32.5725 57.7309 31.5419 57.3252 30.7069 56.6376C30.2932 56.288 29.9746 55.8389 29.7813 55.3325C29.588 54.8261 29.5261 54.2789 29.6015 53.7421C29.6539 52.9236 29.9219 52.1336 30.3781 51.4523C30.8518 50.7469 31.3998 50.0945 32.0125 49.5061C32.6697 48.8706 33.3668 48.2779 34.0995 47.7315C34.8619 47.1591 35.5576 46.5851 36.1866 46.0095C36.7926 45.4576 37.3373 44.8418 37.8114 44.1729C38.2561 43.5488 38.5215 42.8146 38.5786 42.0501C38.624 40.8739 38.3169 39.711 37.697 38.7109C37.0299 37.5406 36.285 36.3258 35.4623 35.0664C34.6474 33.8386 33.9043 32.5643 33.237 31.2502C32.6049 30.0633 32.3146 28.7239 32.3984 27.3814C32.5628 25.6531 33.1203 23.9855 34.0281 22.5062C35.0003 20.8296 36.2105 19.3031 37.6208 17.9745C39.0099 16.647 40.5984 15.5459 42.3285 14.7116C43.8658 13.9195 45.5862 13.5523 47.3125 13.6478C48.5152 13.7097 49.6546 14.2064 50.5193 15.0455C50.9367 15.4581 51.2552 15.96 51.4508 16.5136C51.6464 17.0672 51.7141 17.658 51.6486 18.2416Z" fill="url(#paint0_linear_2198_468)"/>
<path d="M60.9924 59.2899C59.2486 59.1966 57.5798 58.55 56.2275 57.4438C54.892 56.3239 53.7951 54.9466 53.0018 53.3939C52.1483 51.7298 51.5568 49.9437 51.2482 48.0988C50.918 46.2435 50.8172 44.3546 50.9481 42.4747C51.1115 40.4529 51.5015 38.4559 52.1107 36.5213C52.7009 34.5695 53.5829 32.7183 54.7266 31.0307C55.7907 29.4508 57.1879 28.1237 58.8197 27.1429C60.5136 26.1585 62.4746 25.7345 64.4233 25.9313C66.3119 26.0207 68.1144 26.7489 69.536 27.9968C70.8994 29.2277 71.9804 30.7395 72.7046 32.4284C73.4709 34.2106 73.9625 36.0989 74.1627 38.0287C74.3789 39.8995 74.3677 41.7896 74.1293 43.6577C73.8622 45.6304 73.4124 47.5739 72.7856 49.4631C72.1924 51.3018 71.3284 53.0414 70.2221 54.6246C69.1988 56.0878 67.8666 57.3076 66.3197 58.1975C64.6955 59.0935 62.8377 59.4744 60.9924 59.2899ZM63.3749 34.5226C63.0778 34.5143 62.7833 34.5802 62.518 34.7143C62.2526 34.8484 62.0248 35.0464 61.8549 35.2906C61.3524 35.9124 60.9475 36.6074 60.6541 37.3514C60.3082 38.1991 60.0309 39.0733 59.8251 39.9655C59.6263 40.7627 59.4926 41.5747 59.4249 42.3936C59.3586 43.347 59.3697 44.3042 59.4582 45.2557C59.5355 46.2216 59.6949 47.1791 59.9346 48.1179C60.1223 48.8998 60.4293 49.6479 60.8448 50.3361C60.9807 50.5972 61.1787 50.8209 61.4213 50.9872C61.664 51.1536 61.9438 51.2577 62.2361 51.2901C62.5353 51.307 62.8341 51.2511 63.1071 51.1274C63.3801 51.0036 63.6191 50.8156 63.8038 50.5794C64.3115 49.9856 64.7085 49.3054 64.9759 48.5711C65.3095 47.6848 65.5615 46.7699 65.7288 45.8377C65.9053 44.9071 66.0309 43.9676 66.1053 43.0232C66.1634 42.1318 66.1554 41.2373 66.0814 40.3471C66.0168 39.4162 65.8749 38.4924 65.6573 37.5851C65.4826 36.8194 65.1832 36.0877 64.7711 35.4194C64.6293 35.1707 64.4305 34.9592 64.1911 34.8025C63.9516 34.6457 63.6784 34.5482 63.394 34.5178L63.3749 34.5226Z" fill="url(#paint1_linear_2198_468)"/>
<path d="M96.3621 39.6888C95.9156 39.7002 95.4713 39.6207 95.0564 39.455C94.6991 39.2976 94.3465 39.1354 93.9891 38.978C93.6317 38.8206 93.3554 38.6489 93.0361 38.501C92.6963 38.3434 92.3242 38.2682 91.9498 38.2816C91.2551 38.2579 90.5668 38.4227 89.958 38.7586C89.3505 39.0899 88.7976 39.5131 88.3189 40.0132C87.8106 40.5406 87.3689 41.1286 87.0038 41.7639C86.6393 42.3836 86.3315 43.035 86.0842 43.7102C85.8981 44.3596 85.7658 45.0233 85.6887 45.6946C85.5696 46.5914 85.4696 47.5455 85.3933 48.5568C85.3171 49.5681 85.1836 50.6223 85.1122 51.5716C85.067 52.324 84.9747 53.0728 84.8358 53.8136C84.7333 54.5005 84.5901 55.1807 84.407 55.8505C84.2091 56.606 83.9245 57.336 83.5588 58.0258C83.2189 58.6668 82.7538 59.233 82.1912 59.6906C81.6147 60.1342 80.8886 60.3361 80.1661 60.2535C79.5785 60.2228 79.0204 59.9864 78.5891 59.5857C78.1374 59.1508 77.7818 58.6259 77.5455 58.0449C77.2582 57.3477 77.0536 56.6193 76.9356 55.8744C76.7934 55.0458 76.6995 54.2096 76.6545 53.37C76.6116 52.4827 76.5925 51.5955 76.602 50.7177C76.6115 49.84 76.6402 49.0004 76.6783 48.2085C76.7164 47.4167 76.7735 46.7011 76.8403 46.0428C76.907 45.3845 76.9594 44.855 76.988 44.4543C77.0452 43.1664 77.0785 41.8736 77.0833 40.5665C77.088 39.2595 77.1405 37.9715 77.2358 36.6883C77.2977 35.8821 77.3977 34.9901 77.5455 34.0074C77.6822 33.0634 77.9552 32.1443 78.3556 31.2788C78.7253 30.476 79.2786 29.7716 79.9708 29.2228C80.7594 28.6563 81.7342 28.4123 82.6963 28.5406C83.2854 28.5726 83.839 28.8326 84.2402 29.2657C84.6585 29.7169 84.9825 30.2473 85.1931 30.8256C85.4233 31.4416 85.5831 32.0817 85.6696 32.7337C85.7626 33.3399 85.8104 33.9522 85.8126 34.5655C86.6952 33.3057 87.7824 32.2029 89.0289 31.3026C90.3272 30.4514 91.8696 30.0523 93.4173 30.1673C94.294 30.1966 95.1628 30.3442 96 30.6062C96.8229 30.8635 97.5962 31.2587 98.2871 31.7749C98.9622 32.2823 99.5158 32.9342 99.9072 33.683C100.319 34.4969 100.508 35.4054 100.455 36.3162C100.484 36.8215 100.386 37.3261 100.168 37.7831C99.9511 38.2401 99.622 38.6347 99.2115 38.9303C98.3718 39.4921 97.3696 39.7589 96.3621 39.6888Z" fill="url(#paint2_linear_2198_468)"/>
<path d="M120.047 41.4586C119.6 41.4723 119.156 41.3927 118.742 41.2248C118.384 41.0674 118.027 40.9052 117.674 40.7478C117.322 40.5904 117.036 40.4187 116.721 40.2708C116.381 40.1145 116.009 40.0394 115.635 40.0513C114.94 40.0288 114.252 40.1936 113.643 40.5284C113.039 40.8626 112.488 41.2855 112.009 41.783C111.5 42.3104 111.059 42.8984 110.694 43.5337C109.939 44.7174 109.487 46.0691 109.378 47.4692C109.255 48.3612 109.159 49.32 109.083 50.3313C109.007 51.3426 108.873 52.3968 108.802 53.3461C108.754 54.0983 108.662 54.847 108.525 55.5882C108.423 56.2766 108.28 56.9584 108.097 57.6299C107.899 58.3844 107.612 59.1129 107.244 59.8004C106.907 60.4422 106.444 61.0086 105.881 61.4652C105.303 61.9095 104.575 62.1114 103.851 62.0281C103.265 61.9983 102.708 61.7617 102.279 61.3602C101.824 60.9279 101.468 60.4023 101.235 59.8194C100.947 59.1225 100.743 58.3939 100.625 57.6489C100.481 56.8207 100.387 55.9843 100.344 55.1445C100.297 54.2573 100.282 53.3748 100.292 52.4923C100.301 51.6098 100.33 50.775 100.368 49.9831C100.406 49.1912 100.463 48.4757 100.53 47.8174C100.597 47.1591 100.644 46.6296 100.678 46.2289C100.735 44.9568 100.767 43.6609 100.773 42.3411C100.779 41.0213 100.83 39.7286 100.926 38.4629C100.983 37.6551 101.086 36.7615 101.235 35.782C101.37 34.8376 101.643 33.9183 102.045 33.0533C102.412 32.2485 102.966 31.5435 103.661 30.9973C104.449 30.4309 105.424 30.1869 106.386 30.3152C106.975 30.3491 107.528 30.6088 107.93 31.0403C108.348 31.4915 108.672 32.0218 108.883 32.6001C109.111 33.2169 109.271 33.8567 109.359 34.5083C109.451 35.1146 109.497 35.7269 109.498 36.3401C110.383 35.0812 111.472 33.9785 112.719 33.0772C114.015 32.2259 115.556 31.8269 117.102 31.9418C117.981 31.97 118.852 32.1193 119.69 32.3855C120.512 32.6384 121.284 33.0322 121.972 33.5494C122.649 34.0564 123.204 34.7083 123.597 35.4575C124.006 36.2741 124.195 37.1834 124.145 38.0955C124.173 38.6001 124.074 39.1037 123.857 39.5598C123.64 40.0158 123.311 40.4097 122.901 40.7049C122.06 41.2676 121.056 41.5329 120.047 41.4586Z" fill="url(#paint3_linear_2198_468)"/>
<path d="M133.881 79.2011C132.874 79.1062 131.882 78.8916 130.927 78.5619C129.851 78.2065 128.821 77.7262 127.858 77.1308C126.96 76.5878 126.163 75.8921 125.504 75.0748C124.901 74.349 124.606 73.4161 124.68 72.475C124.709 72.0925 124.83 71.7227 125.032 71.3969C125.241 71.045 125.518 70.7384 125.847 70.4953C126.17 70.2469 126.528 70.0491 126.91 69.9086C127.285 69.7728 127.684 69.7191 128.082 69.7512C128.518 69.784 128.946 69.8805 129.354 70.0374C129.764 70.1996 130.183 70.3856 130.607 70.6003C131.031 70.815 131.522 71.0201 131.97 71.2014C132.427 71.3814 132.909 71.4908 133.4 71.5257C134.285 71.6059 135.166 71.3353 135.853 70.772C136.632 70.1314 137.279 69.3457 137.759 68.4584C138.337 67.4218 138.806 66.3284 139.16 65.1956C139.539 64.0136 139.857 62.8131 140.113 61.5988C140.366 60.4014 140.59 59.2804 140.723 58.2214C140.857 57.1624 140.995 56.3133 141.081 55.655C139.909 57.2448 138.512 58.6556 136.935 59.8433C135.545 60.8092 133.853 61.241 132.17 61.0597C130.898 60.9927 129.665 60.5966 128.592 59.9101C127.602 59.2528 126.755 58.4007 126.104 57.4057C125.422 56.3531 124.894 55.2076 124.537 54.0044C124.153 52.7348 123.892 51.4314 123.755 50.1119C123.615 48.8146 123.556 47.5097 123.579 46.205C123.591 45.0384 123.677 43.8736 123.836 42.718C123.932 41.9165 124.111 40.8734 124.375 39.5886C124.633 38.309 124.994 37.052 125.452 35.8297C125.849 34.7155 126.45 33.6851 127.224 32.791C127.542 32.406 127.956 32.1119 128.423 31.9385C128.891 31.7651 129.396 31.7186 129.888 31.8035C130.22 31.841 130.54 31.9531 130.823 32.1315C131.106 32.3099 131.345 32.55 131.522 32.8339C131.949 33.5075 132.257 34.2499 132.432 35.0283C132.652 35.9536 132.784 36.8975 132.828 37.8475C132.879 38.862 132.886 39.8653 132.852 40.8575C132.817 41.8498 132.758 42.7545 132.675 43.5718C132.599 44.3971 132.542 45.0268 132.508 45.4799C132.461 46.1049 132.432 46.725 132.423 47.3499C132.405 47.9289 132.494 48.5061 132.685 49.0529C132.86 49.5548 133.182 49.9921 133.609 50.3075C134.176 50.6794 134.837 50.8829 135.515 50.8942C136.33 50.9984 137.156 50.8054 137.84 50.3504C138.444 49.918 138.925 49.3361 139.237 48.6617C139.572 47.9428 139.805 47.18 139.927 46.3959C140.061 45.5754 140.156 44.8026 140.213 44.068C140.251 43.5575 140.299 42.9374 140.351 42.2028C140.404 41.4681 140.471 40.7049 140.552 39.8987C140.627 39.0954 140.759 38.2983 140.947 37.5136C141.116 36.7873 141.372 36.0842 141.71 35.4194C142 34.8412 142.415 34.3346 142.925 33.9359C143.451 33.5531 144.103 33.3828 144.749 33.4588C145.196 33.4891 145.632 33.6161 146.025 33.831C146.418 34.046 146.76 34.3438 147.027 34.7039C147.691 35.5796 148.187 36.5711 148.49 37.6281C148.879 38.8996 149.152 40.2042 149.305 41.5254C149.476 42.9565 149.581 44.3303 149.624 45.7137C149.667 47.0971 149.676 48.3707 149.624 49.5299C149.572 50.6891 149.552 51.5955 149.505 52.2538C149.39 53.7898 149.206 55.5389 148.952 57.5011C148.698 59.4633 148.337 61.4604 147.871 63.4926C147.404 65.532 146.784 67.5332 146.017 69.4793C145.3 71.3234 144.338 73.0627 143.158 74.6503C142.097 76.093 140.738 77.2904 139.175 78.1612C137.547 79.0129 135.709 79.3741 133.881 79.2011Z" fill="url(#paint4_linear_2198_468)"/>
<path d="M172.886 85.2689C174.43 80.8993 174.558 73.0999 165.71 70.1471C156.862 67.1943 149.581 78.8815 158.458 85.9988C162.227 89.0279 168.131 86.8336 168.131 86.8336C174.211 117.034 170.365 213.838 163.842 226.04C160.245 232.761 157.719 234.899 156.018 235.199V173.739C156.018 136.378 136.23 106.377 90.7106 106.377C45.1915 106.377 25.4029 136.378 25.4029 173.739V225.401C25.4029 225.401 22.7203 233.51 14.6247 218.365C8.09205 206.162 4.24678 109.359 10.3363 79.1582C10.3363 79.1582 16.2399 81.3525 20.009 78.3234C28.8812 71.2061 21.61 59.5141 12.7568 62.4717C3.90363 65.4293 4.03714 73.2239 5.58096 77.5935C5.96215 78.6621 -10.5387 189.338 11.9659 230.023C18.6749 242.149 22.8441 246.948 25.4172 247.845V251.566C25.4172 281.18 42.466 305.59 73.8952 311.939L69.3257 359.966C69.3257 359.966 61.2587 356.875 56.6034 361.597C51.9481 366.32 63.8841 370.766 71.9511 368.805C80.0181 366.845 75.987 362.604 76.0633 361.521C76.1252 360.648 75.1723 330.257 76.2253 312.387C81.017 313.186 85.8672 313.58 90.7249 313.565C97.9417 313.616 105.134 312.713 112.114 310.88C114.02 328.196 114.173 361.593 114.273 362.504C114.383 363.577 110.514 367.971 118.638 369.659C126.762 371.348 138.541 366.468 133.723 361.912C128.906 357.357 120.949 360.734 120.949 360.734L114.316 310.241C140.799 302.131 155.351 280.011 155.985 253.412C158.501 250.884 161.908 246.013 166.501 237.708C189.006 197.013 172.505 86.3375 172.886 85.2689ZM116.713 251.566C116.713 267.699 107.659 278.757 90.701 278.757C73.7428 278.757 64.6894 267.718 64.6894 251.566V171.759C64.6894 153.632 72.0417 140.91 90.701 140.91C109.36 140.91 116.713 153.641 116.713 171.759V251.566Z" fill="url(#paint5_linear_2198_468)"/>
<path d="M44.8384 236.678C51.191 236.678 56.3409 227.334 56.3409 215.808C56.3409 204.282 51.191 194.938 44.8384 194.938C38.4858 194.938 33.3359 204.282 33.3359 215.808C33.3359 227.334 38.4858 236.678 44.8384 236.678Z" fill="#131A12"/>
<path d="M136.488 236.678C143.238 236.678 148.71 227.334 148.71 215.808C148.71 204.282 143.238 194.938 136.488 194.938C129.738 194.938 124.266 204.282 124.266 215.808C124.266 227.334 129.738 236.678 136.488 236.678Z" fill="#131A12"/>
<path d="M51.6661 220.125C51.6661 221.406 51.2865 222.659 50.5755 223.724C49.8645 224.789 48.8539 225.62 47.6716 226.11C46.4892 226.6 45.1881 226.729 43.9329 226.479C42.6777 226.229 41.5248 225.612 40.6199 224.706C39.7149 223.8 39.0986 222.645 38.849 221.389C38.5993 220.132 38.7274 218.83 39.2171 217.646C39.7069 216.462 40.5363 215.45 41.6004 214.739C42.6645 214.027 43.9156 213.647 45.1954 213.647C46.9115 213.647 48.5574 214.329 49.7709 215.544C50.9844 216.759 51.6661 218.407 51.6661 220.125Z" fill="#F9F9F9"/>
<path d="M142.596 217.964C142.596 219.245 142.216 220.498 141.505 221.564C140.794 222.629 139.783 223.459 138.6 223.949C137.418 224.44 136.116 224.568 134.861 224.317C133.606 224.067 132.453 223.449 131.548 222.543C130.643 221.637 130.027 220.482 129.778 219.225C129.529 217.968 129.658 216.665 130.148 215.482C130.639 214.298 131.469 213.287 132.534 212.575C133.598 211.864 134.85 211.485 136.13 211.486C137.845 211.487 139.49 212.17 140.702 213.385C141.915 214.6 142.596 216.247 142.596 217.964Z" fill="#F9F9F9"/>
<path opacity="0.2" d="M172.067 366.816C172.067 376.09 136.668 383.608 93.0026 383.608C49.3371 383.608 13.9434 376.09 13.9434 366.816C13.9434 357.543 49.3419 350.03 93.0026 350.03C136.663 350.03 172.067 357.547 172.067 366.816Z" fill="url(#paint6_linear_2198_468)"/>
<defs>
<linearGradient id="paint0_linear_2198_468" x1="53.6522" y1="35.2699" x2="29.5703" y2="35.2699" gradientUnits="userSpaceOnUse">
<stop stop-color="#FFE451"/>
<stop offset="1" stop-color="#ADFF35"/>
</linearGradient>
<linearGradient id="paint1_linear_2198_468" x1="76.4146" y1="42.2684" x2="50.8926" y2="42.2684" gradientUnits="userSpaceOnUse">
<stop stop-color="#FFE451"/>
<stop offset="1" stop-color="#ADFF35"/>
</linearGradient>
<linearGradient id="paint2_linear_2198_468" x1="102.601" y1="44.0653" x2="76.5996" y2="44.0653" gradientUnits="userSpaceOnUse">
<stop stop-color="#FFE451"/>
<stop offset="1" stop-color="#ADFF35"/>
</linearGradient>
<linearGradient id="paint3_linear_2198_468" x1="126.29" y1="45.84" x2="100.289" y2="45.84" gradientUnits="userSpaceOnUse">
<stop stop-color="#FFE451"/>
<stop offset="1" stop-color="#ADFF35"/>
</linearGradient>
<linearGradient id="paint4_linear_2198_468" x1="151.996" y1="55.0183" x2="123.574" y2="55.0183" gradientUnits="userSpaceOnUse">
<stop stop-color="#FFE451"/>
<stop offset="1" stop-color="#ADFF35"/>
</linearGradient>
<linearGradient id="paint5_linear_2198_468" x1="178.321" y1="215.686" x2="0.103519" y2="212.859" gradientUnits="userSpaceOnUse">
<stop stop-color="#FFE451"/>
<stop offset="1" stop-color="#ADFF35"/>
</linearGradient>
<linearGradient id="paint6_linear_2198_468" x1="186.227" y1="366.476" x2="13.9434" y2="366.476" gradientUnits="userSpaceOnUse">
<stop stop-color="#FFE451"/>
<stop offset="1" stop-color="#ADFF35"/>
</linearGradient>
</defs>
</svg>
